<?xml version="1.0" encoding="utf-8"?>
<!-- Generator: Adobe Illustrator 21.0.0, SVG Export Plug-In . SVG Version: 6.00 Build 0)  -->
<svg version="1.1" id="Ebene_1" xmlns="http://www.w3.org/2000/svg" xmlns:xlink="http://www.w3.org/1999/xlink" x="0px" y="0px"
	 viewBox="0 0 800 800" style="enable-background:new 0 0 800 800;" xml:space="preserve">
<g id="xdBJlE.tif">
	<g>
		<path d="M207.5,21c0,92,0,184-0.2,275.9c0,4.9,1.9,6,6.2,6.7c60.7,10.8,94.9,78.9,61.9,134.8c-13,22-35.1,39.4-68,44
			c0,49.5,0,99.1,0,148.7c0,49.5,0,99,0,148.8c-32.4,0-64.2,0-97,0c0-253,0-506,0-759C142.8,21,175.1,21,207.5,21z M130,40.5
			c0,240.5,0,480.3,0,720.3c19.5,0,38.6,0,58.3,0c0-3,0-5.6,0-8.1c0-93.2,0-186.4,0-279.6c0-10.9-0.4-9.1,8.9-9.4
			c14.6-0.4,28.7-3.7,40.5-12.4c22.7-16.6,34.1-39,30.5-67.4c-3.6-28.1-19-47.8-45.4-57.6c-10.6-3.9-22.3-4.7-34.6-7.1
			c0-92,0-185.2,0-278.7C168.4,40.5,149.4,40.5,130,40.5z"/>
		<path d="M590.2,736.2c-6.6-5.9-12.9-11.5-19.2-17.1c82.9-93.6,127.6-201.6,128.8-326.5c1.2-125-41.4-233.8-122.4-329.3
			c3-2.7,6.2-5.4,9.3-8.1c3.2-2.8,6.4-5.5,9.6-8.3C751.9,212.9,788.3,519.7,590.2,736.2z"/>
		<path d="M488.3,138.8c6.8-6,13-11.4,19.1-16.8c127.1,134.7,145.5,370.5,1.3,530.9c-5.1-7.1-10.1-14-15.4-21.3
			c59.8-71.6,91.6-153.7,90.7-247C583.1,291.3,549.8,209.8,488.3,138.8z"/>
		<path d="M424.5,203.1c80.4,87.2,98.4,237.7,15.4,350.2c-5.4-7-10.8-13.6-15.7-20.6c-0.6-0.9,0.9-3.6,1.9-5.2
			c14.7-22.9,26.2-47.3,33.2-73.6c14.2-53.8,11.4-106.8-8.4-158.8c-9.1-23.7-21.5-45.6-37.3-65.4c-6.5-8.2-6.5-8.8,0.7-16.4
			c3-3.2,6.1-6.5,9.2-9.7C423.7,203.3,424.2,203.2,424.5,203.1z"/>
		<path d="M357.3,289.1c42,62.2,36.7,139,5,187.9c-7.4-3.3-14.9-6.7-22.9-10.3c1.4-2.9,2.7-5.6,4-8.2c19.9-38.3,23.4-78,9.6-119
			c-3-8.9-7.4-17.4-11.1-26.1c-0.6-1.5-1.5-4-0.8-4.9C346.3,302.1,351.7,295.9,357.3,289.1z"/>
	</g>
</g>
</svg>
