<?xml version="1.0" encoding="utf-8"?>
<!-- Generator: Adobe Illustrator 21.0.0, SVG Export Plug-In . SVG Version: 6.00 Build 0)  -->
<svg version="1.1" id="Ebene_1" xmlns="http://www.w3.org/2000/svg" xmlns:xlink="http://www.w3.org/1999/xlink" x="0px" y="0px"
	 viewBox="0 0 800 800" style="enable-background:new 0 0 800 800;" xml:space="preserve">
<g id="dyON0J.tif">
	<g>
		<path d="M427,291.9c0,27.2,0,53.9,0,81c1.8,0,3.5,0,5.1,0c69.9,0,139.7,0,209.6,0c26.1,0,48.1,17.5,53.7,42.6
			c1,4.5,1.3,9.2,1.3,13.8c0.1,24.5,0.1,48.9,0.1,73.4c0,1.5,0,3.1,0,5.2c1.7,0,3.2,0,4.7,0c11.5,0,23.1,0,34.6,0
			c24.4,0.1,41.7,17.4,41.7,41.8c0.1,44.1,0.1,88.3,0,132.4c0,24.4-17.4,41.6-41.8,41.7c-44.1,0.1-88.3,0.1-132.4,0
			c-24.4,0-41.7-17.3-41.7-41.7c-0.1-44.1,0-88.3,0-132.4c0-24.4,17.3-41.7,41.7-41.8c12.9,0,25.8,0,39,0c0-27.1,0-53.8,0-80.8
			c-71.8,0-143.4,0-215.4,0c0,26.7,0,53.4,0,80.8c1.4,0,2.9,0,4.4,0c11.5,0,23.1,0,34.6,0c24.1,0.1,41.6,17.3,41.7,41.4
			c0.1,44.4,0.1,88.8,0,133.3c0,23.8-17.5,41.2-41.3,41.2c-44.4,0.1-88.8,0.1-133.3,0c-23.9,0-41.3-17.4-41.3-41.3
			c-0.1-44.4-0.1-88.8,0-133.3c0-23.9,17.4-41.2,41.3-41.3c13-0.1,26.1,0,39.4,0c0-27.1,0-53.8,0-80.8c-71.8,0-143.4,0-215.4,0
			c0,26.7,0,53.5,0,80.8c1.4,0,2.9,0,4.4,0c11.5,0,23.1,0,34.6,0c24.3,0.1,41.6,17.4,41.7,41.8c0.1,44.1,0.1,88.3,0,132.4
			c0,24.3-17.4,41.6-41.8,41.6c-44.1,0.1-88.3,0.1-132.4,0c-24.4,0-41.7-17.4-41.7-41.7c0-44.1-0.1-88.3,0-132.4
			c0-24.4,17.3-41.6,41.7-41.7c12.9,0,25.8,0,39.2,0c0-1.8,0-3.3,0-4.8c0-24.6,0-49.2,0-73.8c0-32.7,23.7-56.4,56.3-56.4
			c69.2,0,138.3,0,207.5,0c1.8,0,3.6,0,5.8,0c0-26.9,0-53.7,0-81c-1.4,0-2.9,0-4.4,0c-11.8,0-23.6,0.1-35.4,0
			c-23.4-0.2-40.7-17.5-40.8-40.9c-0.1-29,0-57.9,0-86.9c0-15,0-30.1,0-45.1c0-26,17-43,43-43c43.9,0,87.7,0,131.6,0
			c19.1,0,34,10.9,39.5,28.8c1.2,4,1.7,8.3,1.8,12.4c0.1,44.4,0.1,88.8,0.1,133.3c0,23.8-17.4,41.2-41.3,41.3
			C453.5,292,440.5,291.9,427,291.9z"/>
	</g>
</g>
</svg>
